<svg xmlns="http://www.w3.org/2000/svg" width="256" height="256"><path fill-opacity=".208" d="M25 128v128h205V0H25v128" fill="#1976D2" fill-rule="evenodd"/><path fill-opacity=".267" d="M25 128v128h205V0H25v128M114.435 2.071c-23.9 1.862-46.134 13.125-61.196 30.999-8.12 9.636-16.464 26.17-19.897 39.43-3.537 13.66-4.452 41.182-1.88 56.564 4.171 24.945 15.155 45.933 30.836 58.921 8.048 6.667 23.84 14.377 35.202 17.186 7.577 1.874 11.767 2.226 26.5 2.225 19.315-.002 29.716-1.484 45.524-6.489 13.753-4.353 13.283-3.561 9.47-15.968-1.764-5.741-3.317-10.559-3.45-10.705-.134-.146-5.598 1.519-12.143 3.7-14.781 4.926-21.639 6.049-36.991 6.058-21.1.014-34.309-4.892-47.019-17.462-5.721-5.658-7.996-8.885-11.657-16.53-5.41-11.3-7.345-18.65-8.882-33.75-2.015-19.798 1.284-40.712 8.776-55.642C83.475 29.033 116.597 17.638 156 30.206c5.225 1.666 11.194 3.889 13.264 4.939l3.765 1.91 1.095-2.777c.602-1.528 2.378-6.521 3.945-11.096l2.85-8.319-7.218-3.428c-9.491-4.507-24.978-8.364-36.189-9.011-4.956-.286-10.137-.642-11.512-.79-1.375-.148-6.579.048-11.565.437" fill="#1976D2" fill-rule="evenodd"/><path fill-opacity=".676" d="M25 128v128h205V0H25v128M105.849 2.564C77.302 7.73 53.756 25.478 40.611 51.736 31.928 69.081 28.371 87.819 29.362 111c.34 7.975 1.295 17.862 2.121 21.971 7.561 37.622 29.801 62.711 64.017 72.221 7.101 1.973 10.36 2.223 29 2.222 18.062-.002 22.458-.318 31.423-2.262 10.024-2.174 25.534-7.465 26.51-9.044.379-.614-6.027-22.014-6.837-22.841-.126-.128-3.799 1.143-8.163 2.825-14.606 5.631-23.355 7.224-39.933 7.272-17.202.05-23.703-1.281-34.894-7.149-12.856-6.74-23.819-20.64-28.955-36.715-4.599-14.393-5.988-38.57-3.151-54.841 4.289-24.596 16.679-43.082 34.898-52.071 9.687-4.779 18.036-6.556 30.894-6.573 12.821-.018 22.928 1.885 35.208 6.629 4.95 1.912 9.714 3.708 10.588 3.99 1.245.404 2.376-1.723 5.25-9.872C179.352 21.05 181 15.913 181 15.347c0-1.764-12.98-7.457-22.522-9.878C140.211.836 121.2-.214 105.849 2.564M153 43.979c-16.698 1.754-29.81 7.137-39.562 16.24-11.243 10.495-16.006 23.459-15.169 41.281.551 11.724 2.892 18.851 8.753 26.651 8.331 11.089 18.983 17.502 45.478 27.384 26.869 10.021 36.072 15.845 42.027 26.598 2.682 4.841 2.972 6.248 2.966 14.367-.008 10.372-1.815 14.941-8.081 20.443-8.411 7.385-18.322 9.522-40.661 8.768-17.81-.601-21.936-1.448-37.417-7.678-5.373-2.162-9.836-3.841-9.917-3.732-.684.919-7.417 20.313-7.417 21.363 0 3.07 21.34 10.286 38.445 13 13.996 2.221 40.865 1.415 51.997-1.559 23.176-6.191 37.946-20.058 41.537-38.996 2.312-12.19.561-28.158-4.1-37.39-8.124-16.09-18.586-23.49-53.152-37.593-26.968-11.003-35.245-16.368-39.815-25.808-3.068-6.338-3.121-17.078-.112-22.946 3.295-6.427 10.09-11.76 18.447-14.479 6.104-1.986 9.154-2.341 19.253-2.245 13.621.13 22.411 1.75 34.242 6.313 4.515 1.741 8.558 3.076 8.984 2.968.426-.109 2.659-4.886 4.962-10.616l4.189-10.417-3.189-1.964c-11.455-7.055-42.844-12.039-62.688-9.953" fill="#1976D2" fill-rule="evenodd"/></svg>